<svg class="figure-svg" viewBox="0 0 358 350" role="img" aria-label="{{ include.label | escape }}" preserveAspectRatio="xMidYMid meet">
<line x1="0" y1="158" x2="358" y2="158" stroke="#101B2B" stroke-width="1"/>
<polyline points="57.0,76.7 51.6,115.2 41.4,151.0 35.5,154.2 55.0,158.0 41.4,151.0" fill="none" stroke="#A9B3BF" stroke-width="2" stroke-linecap="round" stroke-linejoin="round"/>
<polyline points="59.6,31.8 67.0,55.8 81.1,73.2" fill="none" stroke="#A9B3BF" stroke-width="2" stroke-linecap="round" stroke-linejoin="round"/>
<polyline points="57.0,76.7 59.6,31.8" fill="none" stroke="#101B2B" stroke-width="2" stroke-linecap="round" stroke-linejoin="round"/>
<circle cx="60.9" cy="19.7" r="7.3" fill="none" stroke="#101B2B" stroke-width="2"/>
<polyline points="57.0,76.7 76.5,110.4 93.4,143.5 90.7,149.7 108.4,140.7 93.4,143.5" fill="none" stroke="#101B2B" stroke-width="2" stroke-linecap="round" stroke-linejoin="round"/>
<polyline points="59.6,31.8 55.5,56.5 60.3,78.4" fill="none" stroke="#101B2B" stroke-width="2" stroke-linecap="round" stroke-linejoin="round"/>
<circle cx="57.0" cy="76.7" r="3" fill="#D9601A" stroke="#FFFFFF" stroke-width="1.5"/>
<circle cx="76.5" cy="110.4" r="3" fill="#D9601A" stroke="#FFFFFF" stroke-width="1.5"/>
<circle cx="93.4" cy="143.5" r="3" fill="#D9601A" stroke="#FFFFFF" stroke-width="1.5"/>
<circle cx="108.4" cy="140.7" r="3" fill="#D9601A" stroke="#FFFFFF" stroke-width="1.5"/>
<circle cx="59.6" cy="31.8" r="3" fill="#D9601A" stroke="#FFFFFF" stroke-width="1.5"/>
<text x="57.0" y="178" text-anchor="middle" font-family="'IBM Plex Mono', ui-monospace, monospace" font-size="10" fill="#5A6574">0%</text>
<polyline points="118.0,78.3 130.7,115.1 107.7,144.3 101.0,144.0 115.8,157.3 107.7,144.3" fill="none" stroke="#A9B3BF" stroke-width="2" stroke-linecap="round" stroke-linejoin="round"/>
<polyline points="120.6,33.4 122.8,58.4 133.1,78.4" fill="none" stroke="#A9B3BF" stroke-width="2" stroke-linecap="round" stroke-linejoin="round"/>
<polyline points="118.0,78.3 120.6,33.4" fill="none" stroke="#101B2B" stroke-width="2" stroke-linecap="round" stroke-linejoin="round"/>
<circle cx="121.9" cy="21.3" r="7.3" fill="none" stroke="#101B2B" stroke-width="2"/>
<polyline points="118.0,78.3 126.8,116.2 125.8,153.4 120.9,158.0 140.7,156.9 125.8,153.4" fill="none" stroke="#101B2B" stroke-width="2" stroke-linecap="round" stroke-linejoin="round"/>
<polyline points="120.6,33.4 124.7,58.1 136.4,77.3" fill="none" stroke="#101B2B" stroke-width="2" stroke-linecap="round" stroke-linejoin="round"/>
<circle cx="118.0" cy="78.3" r="3" fill="#D9601A" stroke="#FFFFFF" stroke-width="1.5"/>
<circle cx="126.8" cy="116.2" r="3" fill="#D9601A" stroke="#FFFFFF" stroke-width="1.5"/>
<circle cx="125.8" cy="153.4" r="3" fill="#D9601A" stroke="#FFFFFF" stroke-width="1.5"/>
<circle cx="140.7" cy="156.9" r="3" fill="#D9601A" stroke="#FFFFFF" stroke-width="1.5"/>
<circle cx="120.6" cy="33.4" r="3" fill="#D9601A" stroke="#FFFFFF" stroke-width="1.5"/>
<text x="118.0" y="178" text-anchor="middle" font-family="'IBM Plex Mono', ui-monospace, monospace" font-size="10" fill="#5A6574">25%</text>
<polyline points="179.0,76.7 198.4,110.4 215.3,143.5 212.7,149.7 230.4,140.7 215.3,143.5" fill="none" stroke="#A9B3BF" stroke-width="2" stroke-linecap="round" stroke-linejoin="round"/>
<polyline points="181.6,31.8 177.4,56.5 182.2,78.4" fill="none" stroke="#A9B3BF" stroke-width="2" stroke-linecap="round" stroke-linejoin="round"/>
<polyline points="179.0,76.7 181.6,31.8" fill="none" stroke="#101B2B" stroke-width="2" stroke-linecap="round" stroke-linejoin="round"/>
<circle cx="182.9" cy="19.7" r="7.3" fill="none" stroke="#101B2B" stroke-width="2"/>
<polyline points="179.0,76.7 173.6,115.2 163.3,151.0 157.4,154.2 176.9,158.0 163.3,151.0" fill="none" stroke="#101B2B" stroke-width="2" stroke-linecap="round" stroke-linejoin="round"/>
<polyline points="181.6,31.8 188.9,55.8 203.1,73.2" fill="none" stroke="#101B2B" stroke-width="2" stroke-linecap="round" stroke-linejoin="round"/>
<circle cx="179.0" cy="76.7" r="3" fill="#D9601A" stroke="#FFFFFF" stroke-width="1.5"/>
<circle cx="173.6" cy="115.2" r="3" fill="#D9601A" stroke="#FFFFFF" stroke-width="1.5"/>
<circle cx="163.3" cy="151.0" r="3" fill="#D9601A" stroke="#FFFFFF" stroke-width="1.5"/>
<circle cx="176.9" cy="158.0" r="3" fill="#D9601A" stroke="#FFFFFF" stroke-width="1.5"/>
<circle cx="181.6" cy="31.8" r="3" fill="#D9601A" stroke="#FFFFFF" stroke-width="1.5"/>
<text x="179.0" y="178" text-anchor="middle" font-family="'IBM Plex Mono', ui-monospace, monospace" font-size="10" fill="#5A6574">50%</text>
<polyline points="240.0,78.3 248.7,116.2 247.8,153.4 242.8,158.0 262.7,156.9 247.8,153.4" fill="none" stroke="#A9B3BF" stroke-width="2" stroke-linecap="round" stroke-linejoin="round"/>
<polyline points="242.6,33.4 246.6,58.1 258.3,77.3" fill="none" stroke="#A9B3BF" stroke-width="2" stroke-linecap="round" stroke-linejoin="round"/>
<polyline points="240.0,78.3 242.6,33.4" fill="none" stroke="#101B2B" stroke-width="2" stroke-linecap="round" stroke-linejoin="round"/>
<circle cx="243.9" cy="21.3" r="7.3" fill="none" stroke="#101B2B" stroke-width="2"/>
<polyline points="240.0,78.3 252.7,115.1 229.7,144.3 222.9,144.0 237.7,157.3 229.7,144.3" fill="none" stroke="#101B2B" stroke-width="2" stroke-linecap="round" stroke-linejoin="round"/>
<polyline points="242.6,33.4 244.8,58.4 255.0,78.4" fill="none" stroke="#101B2B" stroke-width="2" stroke-linecap="round" stroke-linejoin="round"/>
<circle cx="240.0" cy="78.3" r="3" fill="#D9601A" stroke="#FFFFFF" stroke-width="1.5"/>
<circle cx="252.7" cy="115.1" r="3" fill="#D9601A" stroke="#FFFFFF" stroke-width="1.5"/>
<circle cx="229.7" cy="144.3" r="3" fill="#D9601A" stroke="#FFFFFF" stroke-width="1.5"/>
<circle cx="237.7" cy="157.3" r="3" fill="#D9601A" stroke="#FFFFFF" stroke-width="1.5"/>
<circle cx="242.6" cy="33.4" r="3" fill="#D9601A" stroke="#FFFFFF" stroke-width="1.5"/>
<text x="240.0" y="178" text-anchor="middle" font-family="'IBM Plex Mono', ui-monospace, monospace" font-size="10" fill="#5A6574">75%</text>
<polyline points="301.0,76.7 295.6,115.2 285.3,151.0 279.4,154.2 298.9,158.0 285.3,151.0" fill="none" stroke="#A9B3BF" stroke-width="2" stroke-linecap="round" stroke-linejoin="round"/>
<polyline points="303.6,31.8 310.9,55.8 325.0,73.2" fill="none" stroke="#A9B3BF" stroke-width="2" stroke-linecap="round" stroke-linejoin="round"/>
<polyline points="301.0,76.7 303.6,31.8" fill="none" stroke="#101B2B" stroke-width="2" stroke-linecap="round" stroke-linejoin="round"/>
<circle cx="304.9" cy="19.7" r="7.3" fill="none" stroke="#101B2B" stroke-width="2"/>
<polyline points="301.0,76.7 320.4,110.4 337.3,143.5 334.6,149.7 352.3,140.7 337.3,143.5" fill="none" stroke="#101B2B" stroke-width="2" stroke-linecap="round" stroke-linejoin="round"/>
<polyline points="303.6,31.8 299.4,56.5 304.2,78.4" fill="none" stroke="#101B2B" stroke-width="2" stroke-linecap="round" stroke-linejoin="round"/>
<circle cx="301.0" cy="76.7" r="3" fill="#D9601A" stroke="#FFFFFF" stroke-width="1.5"/>
<circle cx="320.4" cy="110.4" r="3" fill="#D9601A" stroke="#FFFFFF" stroke-width="1.5"/>
<circle cx="337.3" cy="143.5" r="3" fill="#D9601A" stroke="#FFFFFF" stroke-width="1.5"/>
<circle cx="352.3" cy="140.7" r="3" fill="#D9601A" stroke="#FFFFFF" stroke-width="1.5"/>
<circle cx="303.6" cy="31.8" r="3" fill="#D9601A" stroke="#FFFFFF" stroke-width="1.5"/>
<text x="301.0" y="178" text-anchor="middle" font-family="'IBM Plex Mono', ui-monospace, monospace" font-size="10" fill="#5A6574">100%</text>
<line x1="57.03703703703704" y1="292.0" x2="301.0" y2="292.0" stroke="#D8D5CC" stroke-width="1"/>
<text x="49.03703703703704" y="296.0" text-anchor="end" font-family="'IBM Plex Mono', ui-monospace, monospace" font-size="10" fill="#5A6574">0°</text>
<line x1="57.03703703703704" y1="250.5" x2="301.0" y2="250.5" stroke="#D8D5CC" stroke-width="1"/>
<text x="49.03703703703704" y="254.5" text-anchor="end" font-family="'IBM Plex Mono', ui-monospace, monospace" font-size="10" fill="#5A6574">30°</text>
<line x1="57.03703703703704" y1="208.9" x2="301.0" y2="208.9" stroke="#D8D5CC" stroke-width="1"/>
<text x="49.03703703703704" y="212.9" text-anchor="end" font-family="'IBM Plex Mono', ui-monospace, monospace" font-size="10" fill="#5A6574">60°</text>
<line x1="57.0" y1="196" x2="57.0" y2="292" stroke="#D8D5CC" stroke-width="1" stroke-dasharray="2 3"/>
<line x1="118.0" y1="196" x2="118.0" y2="292" stroke="#D8D5CC" stroke-width="1" stroke-dasharray="2 3"/>
<line x1="179.0" y1="196" x2="179.0" y2="292" stroke="#D8D5CC" stroke-width="1" stroke-dasharray="2 3"/>
<line x1="240.0" y1="196" x2="240.0" y2="292" stroke="#D8D5CC" stroke-width="1" stroke-dasharray="2 3"/>
<line x1="301.0" y1="196" x2="301.0" y2="292" stroke="#D8D5CC" stroke-width="1" stroke-dasharray="2 3"/>
<path d="M57.0,287.8 L58.8,287.9 L60.5,287.5 L62.3,286.7 L64.0,285.7 L65.7,284.4 L67.5,282.9 L69.2,281.3 L71.0,279.6 L72.7,277.9 L74.5,276.2 L76.2,274.7 L77.9,273.3 L79.7,272.1 L81.4,271.2 L83.2,270.5 L84.9,269.9 L86.7,269.2 L88.4,268.7 L90.1,268.2 L91.9,267.8 L93.6,267.4 L95.4,267.1 L97.1,266.9 L98.9,266.8 L100.6,266.7 L102.3,266.8 L104.1,266.9 L105.8,267.1 L107.6,267.4 L109.3,267.9 L111.0,268.5 L112.8,269.3 L114.5,270.1 L116.3,271.0 L118.0,271.9 L119.8,272.9 L121.5,273.9 L123.2,274.8 L125.0,275.8 L126.7,276.7 L128.5,277.5 L130.2,278.2 L132.0,278.8 L133.7,279.5 L135.4,280.1 L137.2,280.8 L138.9,281.4 L140.7,282.0 L142.4,282.6 L144.2,283.1 L145.9,283.6 L147.6,284.0 L149.4,284.4 L151.1,284.7 L152.9,284.9 L154.6,285.1 L156.3,285.2 L158.1,285.4 L159.8,285.5 L161.6,285.7 L163.3,285.8 L165.1,285.8 L166.8,285.8 L168.5,285.6 L170.3,285.3 L172.0,284.9 L173.8,284.2 L175.5,283.4 L177.3,282.3 L179.0,280.9 L180.7,279.3 L182.5,277.3 L184.2,275.0 L186.0,272.5 L187.7,269.8 L189.5,266.9 L191.2,264.0 L192.9,260.9 L194.7,257.8 L196.4,254.8 L198.2,251.8 L199.9,248.9 L201.7,246.1 L203.4,243.5 L205.1,241.0 L206.9,238.3 L208.6,235.6 L210.4,232.8 L212.1,230.0 L213.8,227.3 L215.6,224.6 L217.3,222.0 L219.1,219.7 L220.8,217.5 L222.6,215.6 L224.3,213.9 L226.0,212.6 L227.8,211.7 L229.5,211.1 L231.3,210.8 L233.0,210.7 L234.8,210.8 L236.5,211.2 L238.2,211.8 L240.0,212.6 L241.7,213.6 L243.5,214.8 L245.2,216.1 L247.0,217.6 L248.7,219.2 L250.4,220.9 L252.2,222.8 L253.9,224.8 L255.7,227.3 L257.4,230.0 L259.1,232.9 L260.9,236.1 L262.6,239.4 L264.4,242.8 L266.1,246.2 L267.9,249.6 L269.6,252.9 L271.3,256.0 L273.1,259.1 L274.8,261.8 L276.6,264.3 L278.3,266.6 L280.1,269.0 L281.8,271.3 L283.5,273.5 L285.3,275.7 L287.0,277.8 L288.8,279.7 L290.5,281.5 L292.3,283.1 L294.0,284.6 L295.7,285.8 L297.5,286.7 L299.2,287.4 L301.0,287.8" fill="none" stroke="#005492" stroke-width="2.25" stroke-linejoin="round" />
<circle cx="57.0" cy="287.8" r="3.5" fill="#D9601A" stroke="#FFFFFF" stroke-width="1.5"/>
<circle cx="118.0" cy="271.9" r="3.5" fill="#D9601A" stroke="#FFFFFF" stroke-width="1.5"/>
<circle cx="179.0" cy="280.9" r="3.5" fill="#D9601A" stroke="#FFFFFF" stroke-width="1.5"/>
<circle cx="240.0" cy="212.6" r="3.5" fill="#D9601A" stroke="#FFFFFF" stroke-width="1.5"/>
<circle cx="301.0" cy="287.8" r="3.5" fill="#D9601A" stroke="#FFFFFF" stroke-width="1.5"/>
<text x="309.0" y="291.8" font-family="'IBM Plex Mono', ui-monospace, monospace" font-size="10.5" fill="#005492">KNEE</text>
<line x1="57.0" y1="310" x2="203.4" y2="310" stroke="#101B2B" stroke-width="3"/>
<line x1="205.4" y1="310" x2="301.0" y2="310" stroke="#005492" stroke-width="3"/>
<text x="57.0" y="328" font-family="'IBM Plex Mono', ui-monospace, monospace" font-size="10.5" font-weight="500" fill="#101B2B">STANCE  0–60%</text>
<text x="205.4" y="328" font-family="'IBM Plex Mono', ui-monospace, monospace" font-size="10.5" font-weight="500" fill="#005492">SWING  60–100%</text>
<line x1="57.0" y1="305" x2="57.0" y2="315" stroke="#101B2B" stroke-width="1"/>
<line x1="81.4" y1="305" x2="81.4" y2="315" stroke="#101B2B" stroke-width="1"/>
<line x1="130.2" y1="305" x2="130.2" y2="315" stroke="#101B2B" stroke-width="1"/>
<line x1="179.0" y1="305" x2="179.0" y2="315" stroke="#101B2B" stroke-width="1"/>
<line x1="203.4" y1="305" x2="203.4" y2="315" stroke="#101B2B" stroke-width="1"/>
<line x1="235.1" y1="305" x2="235.1" y2="315" stroke="#101B2B" stroke-width="1"/>
<line x1="269.3" y1="305" x2="269.3" y2="315" stroke="#101B2B" stroke-width="1"/>
</svg>
