<svg class="figure-svg" viewBox="0 0 360 200" role="img" aria-label="{{ include.label | escape }}" preserveAspectRatio="xMidYMid meet">
<rect x="92.4" y="16" width="175.3" height="158" fill="#E5EDF4"/>
<line x1="34" y1="147.7" x2="354" y2="147.7" stroke="#D8D5CC" stroke-width="1"/>
<text x="28" y="151.2" text-anchor="end" font-family="'IBM Plex Mono', ui-monospace, monospace" font-size="9.5" fill="#5A6574">-0.2</text>
<line x1="34" y1="95.0" x2="354" y2="95.0" stroke="#5A6574" stroke-width="1"/>
<text x="28" y="98.5" text-anchor="end" font-family="'IBM Plex Mono', ui-monospace, monospace" font-size="9.5" fill="#5A6574">0</text>
<line x1="34" y1="42.3" x2="354" y2="42.3" stroke="#D8D5CC" stroke-width="1"/>
<text x="28" y="45.8" text-anchor="end" font-family="'IBM Plex Mono', ui-monospace, monospace" font-size="9.5" fill="#5A6574">+0.2</text>
<circle cx="34.0" cy="94.7" r="1.6" fill="#5A6574"/>
<circle cx="35.5" cy="91.6" r="1.6" fill="#5A6574"/>
<circle cx="36.9" cy="98.4" r="1.6" fill="#5A6574"/>
<circle cx="38.4" cy="92.4" r="1.6" fill="#5A6574"/>
<circle cx="39.8" cy="88.2" r="1.6" fill="#5A6574"/>
<circle cx="41.3" cy="92.0" r="1.6" fill="#5A6574"/>
<circle cx="42.8" cy="83.5" r="1.6" fill="#5A6574"/>
<circle cx="44.2" cy="101.5" r="1.6" fill="#5A6574"/>
<circle cx="45.7" cy="94.5" r="1.6" fill="#5A6574"/>
<circle cx="47.2" cy="100.2" r="1.6" fill="#5A6574"/>
<circle cx="48.6" cy="100.8" r="1.6" fill="#5A6574"/>
<circle cx="50.1" cy="96.4" r="1.6" fill="#5A6574"/>
<circle cx="51.5" cy="93.4" r="1.6" fill="#5A6574"/>
<circle cx="53.0" cy="91.9" r="1.6" fill="#5A6574"/>
<circle cx="54.5" cy="91.3" r="1.6" fill="#5A6574"/>
<circle cx="55.9" cy="78.5" r="1.6" fill="#5A6574"/>
<circle cx="57.4" cy="88.6" r="1.6" fill="#5A6574"/>
<circle cx="58.8" cy="106.8" r="1.6" fill="#5A6574"/>
<circle cx="60.3" cy="93.5" r="1.6" fill="#5A6574"/>
<circle cx="61.8" cy="99.6" r="1.6" fill="#5A6574"/>
<circle cx="63.2" cy="98.8" r="1.6" fill="#5A6574"/>
<circle cx="64.7" cy="85.4" r="1.6" fill="#5A6574"/>
<circle cx="66.1" cy="96.6" r="1.6" fill="#5A6574"/>
<circle cx="67.6" cy="109.4" r="1.6" fill="#5A6574"/>
<circle cx="69.1" cy="92.7" r="1.6" fill="#5A6574"/>
<circle cx="70.5" cy="97.1" r="1.6" fill="#5A6574"/>
<circle cx="72.0" cy="103.7" r="1.6" fill="#5A6574"/>
<circle cx="73.5" cy="101.8" r="1.6" fill="#5A6574"/>
<circle cx="74.9" cy="99.6" r="1.6" fill="#5A6574"/>
<circle cx="76.4" cy="95.2" r="1.6" fill="#5A6574"/>
<circle cx="77.8" cy="98.1" r="1.6" fill="#5A6574"/>
<circle cx="79.3" cy="94.5" r="1.6" fill="#5A6574"/>
<circle cx="80.8" cy="81.5" r="1.6" fill="#5A6574"/>
<circle cx="82.2" cy="100.9" r="1.6" fill="#5A6574"/>
<circle cx="83.7" cy="101.0" r="1.6" fill="#5A6574"/>
<circle cx="85.1" cy="96.8" r="1.6" fill="#5A6574"/>
<circle cx="86.6" cy="86.9" r="1.6" fill="#5A6574"/>
<circle cx="88.1" cy="100.2" r="1.6" fill="#5A6574"/>
<circle cx="89.5" cy="84.4" r="1.6" fill="#5A6574"/>
<circle cx="91.0" cy="104.6" r="1.6" fill="#5A6574"/>
<circle cx="92.4" cy="176.3" r="1.6" fill="#5A6574"/>
<circle cx="93.9" cy="165.4" r="1.6" fill="#5A6574"/>
<circle cx="95.4" cy="167.9" r="1.6" fill="#5A6574"/>
<circle cx="96.8" cy="162.8" r="1.6" fill="#5A6574"/>
<circle cx="98.3" cy="151.8" r="1.6" fill="#5A6574"/>
<circle cx="99.8" cy="146.8" r="1.6" fill="#5A6574"/>
<circle cx="101.2" cy="148.5" r="1.6" fill="#5A6574"/>
<circle cx="102.7" cy="148.7" r="1.6" fill="#5A6574"/>
<circle cx="104.1" cy="134.3" r="1.6" fill="#5A6574"/>
<circle cx="105.6" cy="138.8" r="1.6" fill="#5A6574"/>
<circle cx="107.1" cy="141.3" r="1.6" fill="#5A6574"/>
<circle cx="108.5" cy="128.5" r="1.6" fill="#5A6574"/>
<circle cx="110.0" cy="142.1" r="1.6" fill="#5A6574"/>
<circle cx="111.4" cy="132.3" r="1.6" fill="#5A6574"/>
<circle cx="112.9" cy="126.9" r="1.6" fill="#5A6574"/>
<circle cx="114.4" cy="130.1" r="1.6" fill="#5A6574"/>
<circle cx="115.8" cy="132.7" r="1.6" fill="#5A6574"/>
<circle cx="117.3" cy="124.3" r="1.6" fill="#5A6574"/>
<circle cx="118.7" cy="129.4" r="1.6" fill="#5A6574"/>
<circle cx="120.2" cy="128.5" r="1.6" fill="#5A6574"/>
<circle cx="121.7" cy="130.3" r="1.6" fill="#5A6574"/>
<circle cx="123.1" cy="112.0" r="1.6" fill="#5A6574"/>
<circle cx="124.6" cy="124.5" r="1.6" fill="#5A6574"/>
<circle cx="126.1" cy="110.8" r="1.6" fill="#5A6574"/>
<circle cx="127.5" cy="115.5" r="1.6" fill="#5A6574"/>
<circle cx="129.0" cy="119.3" r="1.6" fill="#5A6574"/>
<circle cx="130.4" cy="111.5" r="1.6" fill="#5A6574"/>
<circle cx="131.9" cy="113.5" r="1.6" fill="#5A6574"/>
<circle cx="133.4" cy="113.7" r="1.6" fill="#5A6574"/>
<circle cx="134.8" cy="124.1" r="1.6" fill="#5A6574"/>
<circle cx="136.3" cy="112.7" r="1.6" fill="#5A6574"/>
<circle cx="137.7" cy="105.9" r="1.6" fill="#5A6574"/>
<circle cx="139.2" cy="108.2" r="1.6" fill="#5A6574"/>
<circle cx="140.7" cy="103.9" r="1.6" fill="#5A6574"/>
<circle cx="142.1" cy="99.6" r="1.6" fill="#5A6574"/>
<circle cx="143.6" cy="107.0" r="1.6" fill="#5A6574"/>
<circle cx="145.1" cy="95.0" r="1.6" fill="#5A6574"/>
<circle cx="146.5" cy="120.2" r="1.6" fill="#5A6574"/>
<circle cx="148.0" cy="110.3" r="1.6" fill="#5A6574"/>
<circle cx="149.4" cy="126.7" r="1.6" fill="#5A6574"/>
<circle cx="150.9" cy="101.6" r="1.6" fill="#5A6574"/>
<circle cx="152.4" cy="106.6" r="1.6" fill="#5A6574"/>
<circle cx="153.8" cy="94.5" r="1.6" fill="#5A6574"/>
<circle cx="155.3" cy="109.2" r="1.6" fill="#5A6574"/>
<circle cx="156.7" cy="121.1" r="1.6" fill="#5A6574"/>
<circle cx="158.2" cy="96.5" r="1.6" fill="#5A6574"/>
<circle cx="159.7" cy="115.5" r="1.6" fill="#5A6574"/>
<circle cx="161.1" cy="114.6" r="1.6" fill="#5A6574"/>
<circle cx="162.6" cy="106.3" r="1.6" fill="#5A6574"/>
<circle cx="164.0" cy="100.1" r="1.6" fill="#5A6574"/>
<circle cx="165.5" cy="108.3" r="1.6" fill="#5A6574"/>
<circle cx="167.0" cy="102.9" r="1.6" fill="#5A6574"/>
<circle cx="168.4" cy="117.9" r="1.6" fill="#5A6574"/>
<circle cx="169.9" cy="91.1" r="1.6" fill="#5A6574"/>
<circle cx="171.4" cy="104.2" r="1.6" fill="#5A6574"/>
<circle cx="172.8" cy="102.6" r="1.6" fill="#5A6574"/>
<circle cx="174.3" cy="99.0" r="1.6" fill="#5A6574"/>
<circle cx="175.7" cy="101.9" r="1.6" fill="#5A6574"/>
<circle cx="177.2" cy="101.5" r="1.6" fill="#5A6574"/>
<circle cx="178.7" cy="109.7" r="1.6" fill="#5A6574"/>
<circle cx="180.1" cy="103.5" r="1.6" fill="#5A6574"/>
<circle cx="181.6" cy="99.4" r="1.6" fill="#5A6574"/>
<circle cx="183.0" cy="94.8" r="1.6" fill="#5A6574"/>
<circle cx="184.5" cy="103.2" r="1.6" fill="#5A6574"/>
<circle cx="186.0" cy="101.5" r="1.6" fill="#5A6574"/>
<circle cx="187.4" cy="99.6" r="1.6" fill="#5A6574"/>
<circle cx="188.9" cy="97.8" r="1.6" fill="#5A6574"/>
<circle cx="190.3" cy="100.4" r="1.6" fill="#5A6574"/>
<circle cx="191.8" cy="103.7" r="1.6" fill="#5A6574"/>
<circle cx="193.3" cy="105.5" r="1.6" fill="#5A6574"/>
<circle cx="194.7" cy="93.4" r="1.6" fill="#5A6574"/>
<circle cx="196.2" cy="99.4" r="1.6" fill="#5A6574"/>
<circle cx="197.7" cy="101.4" r="1.6" fill="#5A6574"/>
<circle cx="199.1" cy="75.8" r="1.6" fill="#5A6574"/>
<circle cx="200.6" cy="94.9" r="1.6" fill="#5A6574"/>
<circle cx="202.0" cy="95.0" r="1.6" fill="#5A6574"/>
<circle cx="203.5" cy="100.1" r="1.6" fill="#5A6574"/>
<circle cx="205.0" cy="108.7" r="1.6" fill="#5A6574"/>
<circle cx="206.4" cy="92.8" r="1.6" fill="#5A6574"/>
<circle cx="207.9" cy="101.8" r="1.6" fill="#5A6574"/>
<circle cx="209.3" cy="100.7" r="1.6" fill="#5A6574"/>
<circle cx="210.8" cy="93.5" r="1.6" fill="#5A6574"/>
<circle cx="212.3" cy="93.5" r="1.6" fill="#5A6574"/>
<circle cx="213.7" cy="99.2" r="1.6" fill="#5A6574"/>
<circle cx="215.2" cy="100.8" r="1.6" fill="#5A6574"/>
<circle cx="216.6" cy="85.4" r="1.6" fill="#5A6574"/>
<circle cx="218.1" cy="96.6" r="1.6" fill="#5A6574"/>
<circle cx="219.6" cy="108.4" r="1.6" fill="#5A6574"/>
<circle cx="221.0" cy="95.2" r="1.6" fill="#5A6574"/>
<circle cx="222.5" cy="99.6" r="1.6" fill="#5A6574"/>
<circle cx="224.0" cy="100.5" r="1.6" fill="#5A6574"/>
<circle cx="225.4" cy="95.7" r="1.6" fill="#5A6574"/>
<circle cx="226.9" cy="98.9" r="1.6" fill="#5A6574"/>
<circle cx="228.3" cy="85.9" r="1.6" fill="#5A6574"/>
<circle cx="229.8" cy="99.1" r="1.6" fill="#5A6574"/>
<circle cx="231.3" cy="98.8" r="1.6" fill="#5A6574"/>
<circle cx="232.7" cy="92.0" r="1.6" fill="#5A6574"/>
<circle cx="234.2" cy="104.7" r="1.6" fill="#5A6574"/>
<circle cx="235.6" cy="93.1" r="1.6" fill="#5A6574"/>
<circle cx="237.1" cy="101.0" r="1.6" fill="#5A6574"/>
<circle cx="238.6" cy="91.8" r="1.6" fill="#5A6574"/>
<circle cx="240.0" cy="106.8" r="1.6" fill="#5A6574"/>
<circle cx="241.5" cy="97.4" r="1.6" fill="#5A6574"/>
<circle cx="242.9" cy="112.3" r="1.6" fill="#5A6574"/>
<circle cx="244.4" cy="103.7" r="1.6" fill="#5A6574"/>
<circle cx="245.9" cy="100.4" r="1.6" fill="#5A6574"/>
<circle cx="247.3" cy="96.8" r="1.6" fill="#5A6574"/>
<circle cx="248.8" cy="85.9" r="1.6" fill="#5A6574"/>
<circle cx="250.3" cy="86.9" r="1.6" fill="#5A6574"/>
<circle cx="251.7" cy="110.3" r="1.6" fill="#5A6574"/>
<circle cx="253.2" cy="106.0" r="1.6" fill="#5A6574"/>
<circle cx="254.6" cy="91.2" r="1.6" fill="#5A6574"/>
<circle cx="256.1" cy="97.2" r="1.6" fill="#5A6574"/>
<circle cx="257.6" cy="110.5" r="1.6" fill="#5A6574"/>
<circle cx="259.0" cy="96.8" r="1.6" fill="#5A6574"/>
<circle cx="260.5" cy="108.7" r="1.6" fill="#5A6574"/>
<circle cx="261.9" cy="106.7" r="1.6" fill="#5A6574"/>
<circle cx="263.4" cy="109.6" r="1.6" fill="#5A6574"/>
<circle cx="264.9" cy="102.3" r="1.6" fill="#5A6574"/>
<circle cx="266.3" cy="83.8" r="1.6" fill="#5A6574"/>
<circle cx="267.8" cy="39.5" r="1.6" fill="#5A6574"/>
<circle cx="269.3" cy="48.1" r="1.6" fill="#5A6574"/>
<circle cx="270.7" cy="33.4" r="1.6" fill="#5A6574"/>
<circle cx="272.2" cy="59.4" r="1.6" fill="#5A6574"/>
<circle cx="273.6" cy="60.8" r="1.6" fill="#5A6574"/>
<circle cx="275.1" cy="65.0" r="1.6" fill="#5A6574"/>
<circle cx="276.6" cy="63.0" r="1.6" fill="#5A6574"/>
<circle cx="278.0" cy="71.1" r="1.6" fill="#5A6574"/>
<circle cx="279.5" cy="60.6" r="1.6" fill="#5A6574"/>
<circle cx="280.9" cy="75.7" r="1.6" fill="#5A6574"/>
<circle cx="282.4" cy="71.5" r="1.6" fill="#5A6574"/>
<circle cx="283.9" cy="75.8" r="1.6" fill="#5A6574"/>
<circle cx="285.3" cy="85.5" r="1.6" fill="#5A6574"/>
<circle cx="286.8" cy="87.8" r="1.6" fill="#5A6574"/>
<circle cx="288.2" cy="82.4" r="1.6" fill="#5A6574"/>
<circle cx="289.7" cy="100.1" r="1.6" fill="#5A6574"/>
<circle cx="291.2" cy="84.2" r="1.6" fill="#5A6574"/>
<circle cx="292.6" cy="84.8" r="1.6" fill="#5A6574"/>
<circle cx="294.1" cy="85.2" r="1.6" fill="#5A6574"/>
<circle cx="295.6" cy="87.7" r="1.6" fill="#5A6574"/>
<circle cx="297.0" cy="85.3" r="1.6" fill="#5A6574"/>
<circle cx="298.5" cy="91.1" r="1.6" fill="#5A6574"/>
<circle cx="299.9" cy="84.4" r="1.6" fill="#5A6574"/>
<circle cx="301.4" cy="101.7" r="1.6" fill="#5A6574"/>
<circle cx="302.9" cy="83.5" r="1.6" fill="#5A6574"/>
<circle cx="304.3" cy="97.2" r="1.6" fill="#5A6574"/>
<circle cx="305.8" cy="87.5" r="1.6" fill="#5A6574"/>
<circle cx="307.2" cy="94.9" r="1.6" fill="#5A6574"/>
<circle cx="308.7" cy="94.9" r="1.6" fill="#5A6574"/>
<circle cx="310.2" cy="97.9" r="1.6" fill="#5A6574"/>
<circle cx="311.6" cy="82.5" r="1.6" fill="#5A6574"/>
<circle cx="313.1" cy="100.6" r="1.6" fill="#5A6574"/>
<circle cx="314.5" cy="101.7" r="1.6" fill="#5A6574"/>
<circle cx="316.0" cy="91.5" r="1.6" fill="#5A6574"/>
<circle cx="317.5" cy="91.3" r="1.6" fill="#5A6574"/>
<circle cx="318.9" cy="93.1" r="1.6" fill="#5A6574"/>
<circle cx="320.4" cy="100.6" r="1.6" fill="#5A6574"/>
<circle cx="321.9" cy="98.5" r="1.6" fill="#5A6574"/>
<circle cx="323.3" cy="87.2" r="1.6" fill="#5A6574"/>
<circle cx="324.8" cy="101.5" r="1.6" fill="#5A6574"/>
<circle cx="326.2" cy="89.5" r="1.6" fill="#5A6574"/>
<circle cx="327.7" cy="88.8" r="1.6" fill="#5A6574"/>
<circle cx="329.2" cy="93.2" r="1.6" fill="#5A6574"/>
<circle cx="330.6" cy="103.2" r="1.6" fill="#5A6574"/>
<circle cx="332.1" cy="80.3" r="1.6" fill="#5A6574"/>
<circle cx="333.5" cy="93.5" r="1.6" fill="#5A6574"/>
<circle cx="335.0" cy="93.0" r="1.6" fill="#5A6574"/>
<circle cx="336.5" cy="97.3" r="1.6" fill="#5A6574"/>
<circle cx="337.9" cy="101.5" r="1.6" fill="#5A6574"/>
<circle cx="339.4" cy="96.6" r="1.6" fill="#5A6574"/>
<circle cx="340.8" cy="93.2" r="1.6" fill="#5A6574"/>
<circle cx="342.3" cy="100.9" r="1.6" fill="#5A6574"/>
<circle cx="343.8" cy="93.8" r="1.6" fill="#5A6574"/>
<circle cx="345.2" cy="86.3" r="1.6" fill="#5A6574"/>
<circle cx="346.7" cy="91.5" r="1.6" fill="#5A6574"/>
<circle cx="348.2" cy="95.5" r="1.6" fill="#5A6574"/>
<circle cx="349.6" cy="87.1" r="1.6" fill="#5A6574"/>
<circle cx="351.1" cy="88.1" r="1.6" fill="#5A6574"/>
<circle cx="352.5" cy="88.2" r="1.6" fill="#5A6574"/>
<circle cx="354.0" cy="100.7" r="1.6" fill="#5A6574"/>
<path d="M34.0,95.0 L35.5,95.0 L36.9,95.0 L38.4,95.0 L39.8,95.0 L41.3,95.0 L42.8,95.0 L44.2,95.0 L45.7,95.0 L47.2,95.0 L48.6,95.0 L50.1,95.0 L51.5,95.0 L53.0,95.0 L54.5,95.0 L55.9,95.0 L57.4,95.0 L58.8,95.0 L60.3,95.0 L61.8,95.0 L63.2,95.0 L64.7,95.0 L66.1,95.0 L67.6,95.0 L69.1,95.0 L70.5,95.0 L72.0,95.0 L73.5,95.0 L74.9,95.0 L76.4,95.0 L77.8,95.0 L79.3,95.0 L80.8,95.0 L82.2,95.0 L83.7,95.0 L85.1,95.0 L86.6,95.0 L88.1,95.0 L89.5,95.0 L91.0,95.0" fill="none" stroke="#D9601A" stroke-width="2"/>
<path d="M92.4,168.7 L93.9,165.0 L95.4,161.5 L96.8,158.2 L98.3,155.1 L99.8,152.1 L101.2,149.3 L102.7,146.7 L104.1,144.2 L105.6,141.8 L107.1,139.5 L108.5,137.4 L110.0,135.4 L111.4,133.5 L112.9,131.7 L114.4,130.0 L115.8,128.4 L117.3,126.9 L118.7,125.5 L120.2,124.1 L121.7,122.8 L123.1,121.6 L124.6,120.4 L126.1,119.3 L127.5,118.3 L129.0,117.3 L130.4,116.4 L131.9,115.5 L133.4,114.7 L134.8,113.9 L136.3,113.2 L137.7,112.5 L139.2,111.8 L140.7,111.2 L142.1,110.6 L143.6,110.1 L145.1,109.5 L146.5,109.0 L148.0,108.6 L149.4,108.1 L150.9,107.7 L152.4,107.3 L153.8,106.9 L155.3,106.5 L156.7,106.2 L158.2,105.9 L159.7,105.6 L161.1,105.3 L162.6,105.0 L164.0,104.8 L165.5,104.5 L167.0,104.3 L168.4,104.1 L169.9,103.9 L171.4,103.7 L172.8,103.5 L174.3,103.3 L175.7,103.2 L177.2,103.0 L178.7,102.8 L180.1,102.7 L181.6,102.6 L183.0,102.5 L184.5,102.3 L186.0,102.2 L187.4,102.1 L188.9,102.0 L190.3,101.9 L191.8,101.8 L193.3,101.7 L194.7,101.7 L196.2,101.6 L197.7,101.5 L199.1,101.5 L200.6,101.4 L202.0,101.3 L203.5,101.3 L205.0,101.2 L206.4,101.2 L207.9,101.1 L209.3,101.1 L210.8,101.0 L212.3,101.0 L213.7,100.9 L215.2,100.9 L216.6,100.9 L218.1,100.8 L219.6,100.8 L221.0,100.8 L222.5,100.8 L224.0,100.7 L225.4,100.7 L226.9,100.7 L228.3,100.7 L229.8,100.6 L231.3,100.6 L232.7,100.6 L234.2,100.6 L235.6,100.6 L237.1,100.5 L238.6,100.5 L240.0,100.5 L241.5,100.5 L242.9,100.5 L244.4,100.5 L245.9,100.5 L247.3,100.5 L248.8,100.4 L250.3,100.4 L251.7,100.4 L253.2,100.4 L254.6,100.4 L256.1,100.4 L257.6,100.4 L259.0,100.4 L260.5,100.4 L261.9,100.4 L263.4,100.4 L264.9,100.4 L266.3,100.4" fill="none" stroke="#D9601A" stroke-width="2"/>
<path d="M267.8,42.3 L269.3,47.3 L270.7,51.9 L272.2,56.0 L273.6,59.7 L275.1,63.1 L276.6,66.1 L278.0,68.8 L279.5,71.3 L280.9,73.6 L282.4,75.6 L283.9,77.5 L285.3,79.1 L286.8,80.6 L288.2,82.0 L289.7,83.2 L291.2,84.4 L292.6,85.4 L294.1,86.3 L295.6,87.1 L297.0,87.9 L298.5,88.6 L299.9,89.2 L301.4,89.7 L302.9,90.2 L304.3,90.7 L305.8,91.1 L307.2,91.5 L308.7,91.8 L310.2,92.1 L311.6,92.4 L313.1,92.6 L314.5,92.9 L316.0,93.1 L317.5,93.2 L318.9,93.4 L320.4,93.6 L321.9,93.7 L323.3,93.8 L324.8,93.9 L326.2,94.0 L327.7,94.1 L329.2,94.2 L330.6,94.3 L332.1,94.4 L333.5,94.4 L335.0,94.5 L336.5,94.5 L337.9,94.6 L339.4,94.6 L340.8,94.6 L342.3,94.7 L343.8,94.7 L345.2,94.7 L346.7,94.8 L348.2,94.8 L349.6,94.8 L351.1,94.8 L352.5,94.8 L354.0,94.9" fill="none" stroke="#D9601A" stroke-width="2"/>
<text x="63.2" y="192" text-anchor="middle" font-family="'IBM Plex Mono', ui-monospace, monospace" font-size="9.5" fill="#5A6574">BASELINE</text>
<text x="180.1" y="192" text-anchor="middle" font-family="'IBM Plex Mono', ui-monospace, monospace" font-size="9.5" fill="#5A6574">ADAPTATION</text>
<text x="311.6" y="192" text-anchor="middle" font-family="'IBM Plex Mono', ui-monospace, monospace" font-size="9.5" fill="#5A6574">POST</text>
</svg>
